<?xml version="1.0" encoding="utf-8"?>
<!-- Generator: Adobe Illustrator 27.3.1, SVG Export Plug-In . SVG Version: 6.00 Build 0)  -->
<svg version="1.1" id="Layer_3" xmlns="http://www.w3.org/2000/svg" xmlns:xlink="http://www.w3.org/1999/xlink" x="0px" y="0px"
	 viewBox="0 0 380 481.2" style="enable-background:new 0 0 380 481.2;" xml:space="preserve">
<style type="text/css">
	.st0{opacity:0.749;fill:url(#SVGID_1_);}
	.st1{opacity:0.749;fill:url(#SVGID_00000005250920617103040150000011508755178601537153_);}
	.st2{opacity:0.749;fill:url(#SVGID_00000091734974468179193160000001254777813267532944_);}
	.st3{fill:none;}
	.st4{font-family:'SysFalso-Italic';}
	.st5{font-size:44px;}
</style>
<linearGradient id="SVGID_1_" gradientUnits="userSpaceOnUse" x1="355.4836" y1="52.1246" x2="27.0758" y2="52.1246">
	<stop  offset="0" style="stop-color:#F6E154;stop-opacity:0.9294"/>
	<stop  offset="1" style="stop-color:#36C1B8"/>
</linearGradient>
<path class="st0" d="M380,0C253.3,0,126.7,0,0,0c79.6,34.7,159.2,69.5,238.7,104.2C285.8,69.5,332.9,34.7,380,0z"/>
<linearGradient id="SVGID_00000047042180018287083730000004572561521151780754_" gradientUnits="userSpaceOnUse" x1="264.4897" y1="279.8507" x2="384.864" y2="192.2953">
	<stop  offset="0" style="stop-color:#CAAAEE"/>
	<stop  offset="0.1915" style="stop-color:#D1B3D6"/>
	<stop  offset="0.5957" style="stop-color:#E3C998"/>
	<stop  offset="1" style="stop-color:#F6E154"/>
</linearGradient>
<path style="opacity:0.749;fill:url(#SVGID_00000047042180018287083730000004572561521151780754_);" d="M242.7,109.8
	c0,94.1,0,371.4,0,371.4c45.8-31.7,91.5-63.5,137.3-95.2c0-126.8,0-253.5,0-380.3"/>
<g id="Layer_4">
	
		<linearGradient id="SVGID_00000003076747840915066850000006402715208906692758_" gradientUnits="userSpaceOnUse" x1="-10.7668" y1="155.8405" x2="285.5194" y2="357.7262">
		<stop  offset="0" style="stop-color:#36C9B8"/>
		<stop  offset="6.574112e-02" style="stop-color:#45C6BE"/>
		<stop  offset="0.2867" style="stop-color:#75BCCF"/>
		<stop  offset="0.4973" style="stop-color:#9AB4DC"/>
		<stop  offset="0.6922" style="stop-color:#B4AFE6"/>
		<stop  offset="0.8657" style="stop-color:#C4ABEC"/>
		<stop  offset="1" style="stop-color:#CAAAEE"/>
	</linearGradient>
	<path style="opacity:0.749;fill:url(#SVGID_00000003076747840915066850000006402715208906692758_);" d="M0,5.1
		c0,124.2,0,248.4,0,372.5c78.9,34.5,157.7,69,236.6,103.5l-0.3-371.6C157.5,74.8,78.7,40,0,5.1z"/>
</g>
<rect x="36.3" y="327.4" class="st3" width="300.2" height="73.2"/>
<text transform="matrix(1 0 0 1 36.3181 361.7976)" class="st4 st5">PrismaticPay</text>
</svg>
